<svg width="512" height="470" viewBox="0 0 512 470" fill="none" xmlns="http://www.w3.org/2000/svg">
<path d="M469.845 27.5973C456.535 16.5065 440.934 8.50105 424.162 4.15594C407.39 -0.18916 389.864 -0.766084 372.843 2.46661L302.805 17.1439C285.403 20.2568 269.203 28.1281 256 39.8853C243.074 28.2148 227.156 20.3704 210.027 17.2293L138.325 2.29594C121.422 -0.777806 104.05 -0.101997 87.4367 4.27562C70.8233 8.65323 55.3739 16.6258 42.1802 27.6301C28.9865 38.6344 18.3703 52.4018 11.0818 67.9597C3.79329 83.5175 0.0102984 100.486 0.000112957 117.667V326.563C-0.037924 353.967 9.53151 380.518 27.0439 401.596C44.5563 422.675 68.9036 436.948 95.8508 441.933L219.733 466.403C231.657 468.577 243.752 469.669 255.872 469.667C268.236 469.658 280.574 468.538 292.736 466.317L415.659 441.933C442.678 437.02 467.117 422.785 484.721 401.708C502.326 380.631 511.979 354.046 512 326.584V117.667C512.017 100.479 508.249 83.4994 500.963 67.9328C493.678 52.3662 483.053 38.5949 469.845 27.5973ZM224 402.019L107.797 379.064C95.5069 376.83 84.3902 370.353 76.3862 360.763C68.3822 351.172 63.9987 339.076 64.0001 326.584V117.667C64.0393 103.556 69.6534 90.0325 79.6192 80.0427C89.585 70.053 103.095 64.4064 117.205 64.3333C120.167 64.3275 123.124 64.5917 126.037 65.1226L197.739 80.0559C205.106 81.399 211.77 85.2835 216.568 91.0333C221.367 96.783 223.997 104.034 224 111.523V402.019ZM448 326.584C447.977 339.151 443.527 351.309 435.432 360.921C427.336 370.534 416.114 376.988 403.733 379.149L288 402.019V111.523C288.045 103.893 290.794 96.5271 295.759 90.7341C300.724 84.9412 307.582 81.097 315.115 79.8853L385.131 65.2293C392.813 63.8331 400.709 64.141 408.259 66.131C415.81 68.121 422.831 71.7448 428.828 76.7462C434.824 81.7476 439.649 88.0047 442.962 95.0755C446.275 102.146 447.995 109.858 448 117.667V326.584Z" fill="white"/>
</svg>
